<svg version="1.1" id="Layer_1" xmlns="http://www.w3.org/2000/svg" xmlns:xlink="http://www.w3.org/1999/xlink" x="0px" y="0px"
	 width="100%" viewBox="0 0 550 85" enable-background="new 0 0 550 85" xml:space="preserve">
<path fill="#FFFFFF" opacity="1.000000" stroke="none" 
	d="
M411.000000,86.000000 
	C274.000031,86.000000 137.500046,86.000000 1.000055,86.000000 
	C1.000037,57.666695 1.000037,29.333393 1.000018,1.000066 
	C184.333267,1.000044 367.666534,1.000044 550.999878,1.000022 
	C550.999878,29.333267 550.999878,57.666534 550.999939,85.999901 
	C504.500000,86.000000 458.000000,86.000000 411.000000,86.000000 
M48.789028,47.261265 
	C48.115032,47.656609 47.441040,48.051956 46.767048,48.447308 
	C47.419441,48.870544 48.071835,49.293781 48.771511,49.649284 
	C48.771511,49.649284 48.686958,49.666576 48.871437,50.420410 
	C48.889641,50.935867 48.907845,51.451324 48.298424,52.003040 
	C47.880718,52.008099 47.463017,52.013161 46.486050,51.742371 
	C45.633018,52.067253 44.779987,52.392139 43.535240,53.041904 
	C43.373814,52.989758 43.212391,52.937611 43.053978,52.168892 
	C43.037895,51.452900 43.021812,50.736904 43.136826,49.501041 
	C43.087814,49.329178 43.038803,49.157318 42.902504,48.342701 
	C42.282570,48.180679 41.662636,48.018654 41.470360,47.385487 
	C45.247513,46.687225 42.613804,43.992130 43.440250,42.045544 
	C43.440250,42.045544 43.869774,42.050995 44.059975,42.562347 
	C44.343189,42.785549 44.626408,43.008747 44.908451,43.889626 
	C45.618408,44.363194 46.328362,44.836761 47.648571,45.058952 
	C48.087963,45.036060 48.527351,45.013168 49.761444,45.035412 
	C50.478275,43.669140 51.195107,42.302868 51.960152,40.977432 
	C51.960152,40.977432 51.949112,40.915218 52.645359,41.016666 
	C53.429977,40.678123 54.214600,40.339581 55.029488,39.248989 
	C53.678783,36.180923 52.328083,33.112858 51.040337,29.703722 
	C51.040337,29.703722 51.015064,29.357771 51.697639,29.079838 
	C52.777740,26.633930 53.857841,24.188021 55.477760,21.004448 
	C57.295479,22.387028 59.113197,23.769608 61.171734,25.850908 
	C62.090973,26.566874 63.674496,28.021441 63.826698,27.884554 
	C65.349701,26.514791 67.519913,25.029636 67.807762,23.294928 
	C68.411743,19.655046 67.991051,15.845134 67.991051,12.152464 
	C65.286186,12.152464 63.151348,12.152464 60.095512,12.016702 
	C55.681732,12.339429 51.267956,12.662156 46.178917,12.997957 
	C45.448078,13.623013 44.717243,14.248068 43.433300,15.223399 
	C42.801579,16.560942 42.169853,17.898485 41.043304,19.120602 
	C40.886742,19.177345 40.730179,19.234091 40.573616,19.290834 
	C40.741947,19.528809 40.910275,19.766783 41.382149,20.525713 
	C41.258572,20.684212 41.134998,20.842709 40.472771,21.238914 
	C39.089340,21.487135 37.705906,21.735357 36.231525,21.082508 
	C36.100792,18.486731 35.970055,15.890952 35.808617,12.685538 
	C34.320751,13.174503 33.078739,13.582672 30.947195,13.819753 
	C30.652798,13.752659 30.358402,13.685566 30.584158,12.977784 
	C27.390408,12.707656 24.196657,12.437527 20.258116,12.017625 
	C19.504431,12.072608 18.750746,12.127591 17.146948,12.037737 
	C15.425429,12.081820 13.703912,12.125903 11.086502,12.005055 
	C8.828783,12.005055 6.571065,12.005055 4.314804,12.005055 
	C4.314804,20.850634 4.314804,29.253376 4.314804,37.095184 
	C7.201475,32.274532 10.243348,27.194698 14.045816,21.746630 
	C16.735579,23.883923 19.425343,26.021214 21.955675,28.760771 
	C21.857573,29.164032 21.759470,29.567293 21.195868,30.005590 
	C21.113680,30.607643 21.031490,31.209698 20.448477,32.064236 
	C20.243053,32.369312 20.037632,32.674389 19.119577,32.976353 
	C18.065805,33.312428 17.012033,33.648502 15.523312,34.348068 
	C16.010206,34.905094 16.497101,35.462120 17.348282,36.523785 
	C17.926403,36.733475 18.504522,36.943169 19.067852,37.829876 
	C19.064949,38.506996 19.062044,39.184120 18.357664,39.984840 
	C17.274683,41.375320 16.191702,42.765797 15.047359,43.427696 
	C14.701932,41.775600 14.356503,40.123505 14.011076,38.471409 
	C13.521035,38.677910 13.030994,38.884411 12.540953,39.090916 
	C13.411783,40.764835 14.282614,42.438759 15.367345,44.742973 
	C16.037584,46.535999 16.707823,48.329021 17.579147,50.784588 
	C17.761187,51.445705 17.943226,52.106823 17.638557,53.356586 
	C15.674281,53.961426 13.710005,54.566261 11.384180,55.188519 
	C11.384180,55.188519 11.024261,55.150070 11.004636,54.296318 
	C10.497119,50.667313 9.989602,47.038307 9.463669,43.277618 
	C5.031152,44.781322 4.878135,48.126423 4.309124,52.119896 
	C4.250886,54.085625 4.192647,56.051350 3.995908,58.795315 
	C3.995908,64.501350 3.995908,70.207382 3.995908,75.841484 
	C7.757136,75.841484 10.867234,75.841484 14.902534,75.978668 
	C18.868534,75.990044 22.835588,76.048958 26.799376,75.960922 
	C27.385988,75.947891 27.957178,75.240494 28.535505,74.854355 
	C28.027338,74.513168 27.519173,74.171989 27.007742,73.423996 
	C27.007742,73.423996 27.006334,73.017174 27.691338,72.948387 
	C28.786554,72.640244 29.881771,72.332092 31.061417,72.634636 
	C32.099426,72.486519 33.137440,72.338402 34.807236,72.228279 
	C36.425320,72.764305 35.694801,76.763763 38.973259,75.105522 
	C38.973259,75.105522 39.115120,75.059662 39.498192,75.826271 
	C46.340118,75.829506 53.182045,75.832741 60.920017,75.993019 
	C63.169720,75.993019 65.419418,75.993019 67.996803,75.993019 
	C67.996803,72.158997 68.361176,68.679695 67.870872,65.325333 
	C67.534515,63.024181 66.009956,60.896713 65.134811,58.011250 
	C64.791107,55.999813 68.939987,53.917500 64.993874,51.364376 
	C65.741646,49.362392 66.489426,47.360405 67.272301,45.264431 
	C65.671906,44.946987 64.153229,44.645752 62.840992,44.385464 
	C62.332943,46.985344 61.894310,49.229980 61.396263,51.778671 
	C62.724335,51.875557 63.836346,51.956676 64.764763,52.455498 
	C64.582314,52.718372 64.336212,52.890057 63.281662,52.962318 
	C62.389435,53.553524 61.287128,53.973103 60.640331,54.764816 
	C57.356007,58.785023 54.189785,62.901714 50.300785,67.061829 
	C49.192654,68.006721 48.084522,68.951614 46.344620,69.949448 
	C43.822308,70.557617 41.299995,71.165779 38.129967,71.797050 
	C36.694210,71.765587 35.258453,71.734116 33.341965,71.592499 
	C32.569031,71.718010 31.796101,71.843529 30.948221,71.301186 
	C29.297911,70.871727 27.647600,70.442268 25.939779,69.424507 
	C25.292988,69.278198 24.646196,69.131889 23.352974,68.895912 
	C22.484282,68.380753 21.615587,67.865593 20.411226,67.151367 
	C20.234020,68.577995 20.104271,69.622559 19.323725,70.690788 
	C18.483557,69.939194 17.643389,69.187607 16.905655,67.673996 
	C16.620924,65.726685 19.682890,62.868618 15.087137,61.315418 
	C14.133776,59.571526 13.180413,57.827629 13.193046,56.056103 
	C14.756354,56.109119 16.319662,56.162132 17.996273,56.549053 
	C17.996273,56.549053 18.277893,56.760082 18.277893,56.760082 
	C18.277893,56.760082 18.582277,56.583691 19.176727,57.179691 
	C19.489229,58.516315 19.801729,59.852943 20.147322,61.900410 
	C22.112453,63.051437 24.077583,64.202461 26.117428,65.949112 
	C26.770420,66.288544 27.423410,66.627975 28.890425,67.043320 
	C30.294558,67.304825 31.731215,67.454559 33.095894,67.851654 
	C35.749172,68.623680 36.536697,67.322388 36.963570,64.548866 
	C37.314629,63.413433 37.665688,62.277996 38.502922,61.044167 
	C38.502922,61.044167 38.974350,61.198463 39.071472,61.861717 
	C39.178787,63.218227 43.446068,64.591263 38.901386,65.658783 
	C38.799328,65.617683 38.697269,65.576584 38.595215,65.535477 
	C38.702820,65.712105 38.810425,65.888733 39.067089,66.771660 
	C44.810883,69.418472 47.237366,63.960701 51.737564,61.720001 
	C53.504082,60.567467 53.683926,59.321064 52.763702,58.346657 
	C57.593494,58.713993 56.289116,55.470524 55.866524,52.401192 
	C55.686729,52.145481 55.450233,51.963413 55.068291,51.117970 
	C53.768898,50.385632 52.469501,49.653294 51.096592,49.032337 
	C51.096592,49.032337 50.971943,48.984673 50.812809,48.434643 
	C50.287563,48.258389 49.762321,48.082134 48.789028,47.261265 
M66.037193,32.359394 
	C65.582481,32.247826 65.127769,32.136257 64.673058,32.024689 
	C65.068565,32.400246 65.464081,32.775803 65.627571,33.696980 
	C65.621788,34.287910 65.616005,34.878845 65.610222,35.469776 
	C65.913895,35.463963 66.217575,35.458149 66.521248,35.452335 
	C66.405952,34.582699 66.290657,33.713066 66.037193,32.359394 
M423.008606,37.094921 
	C423.860138,34.129711 424.711639,31.164503 425.563141,28.199291 
	C425.265259,28.051460 424.967377,27.903629 424.669495,27.755798 
	C423.852264,29.047216 423.035034,30.338633 422.251984,31.576057 
	C421.208618,30.281935 420.179626,29.005644 419.150635,27.729355 
	C421.739594,35.851368 421.739594,35.851368 418.520416,38.842075 
	C419.751526,38.842075 420.894470,38.842075 422.899139,38.988579 
	C428.396484,38.690842 425.153351,42.552650 426.086792,44.721008 
	C351.768127,44.721008 277.938721,44.721008 204.252930,44.721008 
	C204.252930,42.653000 204.252930,40.877090 204.252930,39.119053 
	C205.993881,39.016220 207.482285,38.928303 209.902405,38.980305 
	C278.805023,38.980305 347.707642,38.980305 416.725037,38.980305 
	C416.725037,34.113861 416.725037,29.719927 416.725037,25.244429 
	C347.405365,25.244429 278.360870,25.244429 209.228195,25.244429 
	C209.029587,27.631092 208.850555,29.782341 208.576813,33.071762 
	C206.849014,29.806810 205.735031,27.701756 204.621048,25.596699 
	C204.099380,25.893663 203.577713,26.190628 203.056046,26.487593 
	C205.007446,30.316582 206.958847,34.145573 208.028961,37.998150 
	C206.432938,37.998150 204.836929,37.998150 203.252930,37.998150 
	C203.252930,41.242001 203.252930,43.982399 203.252930,46.710144 
	C277.948151,46.710144 352.390106,46.710144 426.765869,46.710144 
	C426.765869,43.649654 426.765869,40.882393 426.765869,38.122101 
	C425.372986,38.027222 424.213287,37.948231 423.008606,37.094921 
M81.011963,59.253845 
	C82.621346,59.835896 84.228935,60.919731 85.840370,60.925476 
	C114.627563,61.028080 143.415222,60.999989 172.202789,60.999989 
	C173.655640,60.999989 175.108490,60.999989 176.767029,60.999989 
	C176.767029,49.180649 176.767029,37.798035 176.767029,26.207844 
	C143.890137,26.207844 111.246147,26.207844 79.587357,26.207844 
	C80.064484,27.771395 80.915482,29.298813 80.936996,30.837822 
	C81.064880,39.988159 81.000885,49.141174 81.011963,59.253845 
M229.500031,52.000000 
	C223.671692,52.000000 217.843338,51.999760 212.014999,52.000069 
	C205.700256,52.000404 203.195724,54.932152 203.536835,61.615204 
	C205.229355,61.219666 206.970505,60.812767 208.711655,60.405869 
	C209.064850,64.550499 212.279724,62.935368 214.321518,62.937714 
	C280.098785,63.013340 345.876251,62.970840 411.653503,63.060215 
	C416.461151,63.066746 420.233185,62.697437 418.961029,55.764168 
	C421.280945,58.428116 423.045502,60.454376 424.810089,62.480633 
	C425.237061,62.188858 425.664032,61.897087 426.091003,61.605316 
	C425.947205,58.416542 425.803436,55.227764 425.659637,52.038990 
	C425.211914,52.055519 424.764160,52.072052 424.316437,52.088581 
	C424.138245,53.584686 423.960083,55.080791 423.781891,56.576897 
	C420.929596,49.925388 415.172333,52.046612 410.346985,52.041504 
	C350.398041,51.978016 290.449005,52.000000 229.500031,52.000000 
M66.173958,41.901466 
	C66.728035,40.988644 67.282104,40.075825 67.836174,39.163002 
	C67.362404,38.918926 66.888641,38.674854 66.414871,38.430779 
	C66.283653,39.351986 66.152443,40.273193 66.173958,41.901466 
M41.467720,13.524436 
	C41.253128,13.413533 41.046001,13.278219 40.818737,13.208762 
	C40.761395,13.191236 40.639709,13.384239 40.547592,13.480497 
	C40.761921,13.591850 40.976246,13.703203 41.467720,13.524436 
M63.409473,30.482170 
	C63.409473,30.482170 63.525967,30.412333 63.409473,30.482170 
M5.400693,40.478321 
	C5.400693,40.478321 5.524117,40.400242 5.400693,40.478321 
z"/>
<path fill="#2E3191" opacity="1.000000" stroke="none" 
	d="
M81.006653,58.773567 
	C81.000885,49.141174 81.064880,39.988159 80.936996,30.837822 
	C80.915482,29.298813 80.064484,27.771395 79.587357,26.207844 
	C111.246147,26.207844 143.890137,26.207844 176.767029,26.207844 
	C176.767029,37.798035 176.767029,49.180649 176.767029,60.999989 
	C175.108490,60.999989 173.655640,60.999989 172.202789,60.999989 
	C143.415222,60.999989 114.627563,61.028080 85.840370,60.925476 
	C84.228935,60.919731 82.621346,59.835896 81.006653,58.773567 
z"/>
<path fill="#2E3191" opacity="1.000000" stroke="none" 
	d="
M208.910248,37.974560 
	C206.958847,34.145573 205.007446,30.316582 203.056046,26.487593 
	C203.577713,26.190628 204.099380,25.893663 204.621048,25.596699 
	C205.735031,27.701756 206.849014,29.806810 208.576813,33.071762 
	C208.850555,29.782341 209.029587,27.631092 209.228195,25.244429 
	C278.360870,25.244429 347.405365,25.244429 416.725037,25.244429 
	C416.725037,29.719927 416.725037,34.113861 416.725037,38.980305 
	C347.707642,38.980305 278.805023,38.980305 209.410126,38.694695 
	C208.917862,38.409084 208.910248,37.974560 208.910248,37.974560 
z"/>
<path fill="#313131" opacity="1.000000" stroke="none" 
	d="
M230.000015,52.000000 
	C290.449005,52.000000 350.398041,51.978016 410.346985,52.041504 
	C415.172333,52.046612 420.929596,49.925388 423.781891,56.576897 
	C423.960083,55.080791 424.138245,53.584686 424.316437,52.088581 
	C424.764160,52.072052 425.211914,52.055519 425.659637,52.038990 
	C425.803436,55.227764 425.947205,58.416542 426.091003,61.605316 
	C425.664032,61.897087 425.237061,62.188858 424.810089,62.480633 
	C423.045502,60.454376 421.280945,58.428116 418.961029,55.764168 
	C420.233185,62.697437 416.461151,63.066746 411.653503,63.060215 
	C345.876251,62.970840 280.098785,63.013340 214.321518,62.937714 
	C212.279724,62.935368 209.064850,64.550499 208.711655,60.405869 
	C206.970505,60.812767 205.229355,61.219666 203.536835,61.615204 
	C203.195724,54.932152 205.700256,52.000404 212.014999,52.000069 
	C217.843338,51.999760 223.671692,52.000000 230.000015,52.000000 
z"/>
<path fill="#000000" opacity="1.000000" stroke="none" 
	d="
M208.469604,37.986355 
	C208.910248,37.974560 208.917862,38.409084 208.944275,38.624733 
	C207.482285,38.928303 205.993881,39.016220 204.252930,39.119053 
	C204.252930,40.877090 204.252930,42.653000 204.252930,44.721008 
	C277.938721,44.721008 351.768127,44.721008 426.086792,44.721008 
	C425.153351,42.552650 428.396484,38.690842 422.562805,38.688942 
	C422.474762,38.172375 422.750488,37.999020 423.053619,37.869240 
	C424.213287,37.948231 425.372986,38.027222 426.765869,38.122101 
	C426.765869,40.882393 426.765869,43.649654 426.765869,46.710144 
	C352.390106,46.710144 277.948151,46.710144 203.252930,46.710144 
	C203.252930,43.982399 203.252930,41.242001 203.252930,37.998150 
	C204.836929,37.998150 206.432938,37.998150 208.469604,37.986355 
z"/>
<path fill="#0A8E1B" opacity="1.000000" stroke="none" 
	d="
M44.909622,43.231949 
	C44.626408,43.008747 44.343189,42.785549 44.030685,41.976685 
	C45.523777,37.904388 44.544243,34.991840 41.993561,32.083473 
	C41.397419,31.103062 40.757458,30.489050 39.993725,29.651701 
	C39.583923,29.247423 39.297894,29.066481 39.126335,28.583017 
	C39.119896,27.146805 38.998989,26.013113 39.096420,24.628826 
	C40.673702,24.251837 42.032639,24.125441 43.629929,24.169205 
	C44.583061,24.530790 45.297844,24.722216 46.250484,24.940138 
	C46.488338,24.966633 46.965389,24.943306 47.238331,25.081741 
	C48.329552,26.373838 49.147827,27.527502 50.044228,28.977205 
	C50.407364,29.530426 50.692371,29.787607 50.977379,30.044790 
	C52.328083,33.112858 53.678783,36.180923 54.688679,39.724953 
	C53.548283,40.439018 52.748699,40.677116 51.949112,40.915218 
	C51.949112,40.915218 51.960152,40.977432 51.628265,41.071892 
	C50.519829,42.440990 49.743286,43.715633 48.966743,44.990276 
	C48.527351,45.013168 48.087963,45.036060 47.015953,45.114395 
	C45.892094,44.523876 45.400860,43.877911 44.909622,43.231949 
z"/>
<path fill="#101010" opacity="1.000000" stroke="none" 
	d="
M13.977331,75.841484 
	C10.867234,75.841484 7.757136,75.841484 3.995908,75.841484 
	C3.995908,70.207382 3.995908,64.501350 4.428288,58.386086 
	C5.829570,57.994930 6.798470,58.013004 7.874957,58.239475 
	C7.982542,58.447876 8.038021,58.913651 8.029465,59.212273 
	C9.671752,60.678627 11.322597,61.846359 13.216311,63.009262 
	C13.459181,63.004425 13.941421,63.063412 13.998993,63.418205 
	C14.412177,65.098854 14.767787,66.424721 14.963499,68.129272 
	C14.528178,70.952469 14.252755,73.396973 13.977331,75.841484 
z"/>
<path fill="#141414" opacity="1.000000" stroke="none" 
	d="
M13.285221,22.114864 
	C10.243348,27.194698 7.201475,32.274532 4.314804,37.095184 
	C4.314804,29.253376 4.314804,20.850634 4.314804,12.005055 
	C6.571065,12.005055 8.828783,12.005055 11.538300,12.528915 
	C12.421804,16.073473 12.853513,19.094168 13.285221,22.114864 
z"/>
<path fill="#0A8C1B" opacity="1.000000" stroke="none" 
	d="
M19.059139,39.861240 
	C19.062044,39.184120 19.064949,38.506996 19.083416,37.476669 
	C19.098982,37.123466 19.126078,37.122536 19.414316,37.102291 
	C20.118513,36.389050 20.534472,35.696049 20.885981,34.713913 
	C20.491756,33.943001 20.161983,33.461235 19.832209,32.979465 
	C20.037632,32.674389 20.243053,32.369312 21.022053,31.925169 
	C21.617540,31.180920 21.639452,30.575737 21.661366,29.970554 
	C21.759470,29.567293 21.857573,29.164032 22.312038,28.300787 
	C23.489273,27.229845 24.310143,26.618889 25.405388,25.929422 
	C26.151453,25.682919 26.623140,25.514925 27.122444,25.682514 
	C28.975555,27.335001 30.850632,28.590467 32.599731,30.002031 
	C33.214478,30.498140 33.520260,31.377089 33.681839,32.204483 
	C33.241066,34.274796 33.085571,36.221851 32.589527,38.103928 
	C31.070650,38.691151 29.892319,39.343361 28.406475,39.880386 
	C25.412861,40.147144 22.726763,40.529083 19.823946,40.791607 
	C19.342106,40.457596 19.159409,40.187279 19.059139,39.861240 
z"/>
<path fill="#0C0C0C" opacity="1.000000" stroke="none" 
	d="
M65.016541,58.691612 
	C66.009956,60.896713 67.534515,63.024181 67.870872,65.325333 
	C68.361176,68.679695 67.996803,72.158997 67.996803,75.993019 
	C65.419418,75.993019 63.169720,75.993019 60.464191,75.474426 
	C60.005096,72.992668 60.402374,70.912766 59.874729,69.102448 
	C59.434452,67.591866 57.910282,66.397209 56.621559,64.986092 
	C56.280903,64.613876 56.184834,64.318199 56.377441,63.928902 
	C57.467789,62.960064 58.269455,62.084839 59.448727,61.174110 
	C61.556404,60.322941 63.286472,59.507278 65.016541,58.691612 
z"/>
<path fill="#058D19" opacity="1.000000" stroke="none" 
	d="
M38.974350,61.198463 
	C38.974350,61.198463 38.502922,61.044167 37.887108,61.001480 
	C33.753681,64.534401 30.341129,62.188217 26.963346,60.387436 
	C26.309856,57.009995 25.605047,54.020107 24.946171,50.741657 
	C25.274694,50.196690 25.557281,49.940285 26.222626,49.727715 
	C28.052217,50.211750 29.499056,50.651947 30.953091,51.417519 
	C32.932095,52.187466 34.903900,52.632042 37.135406,53.332367 
	C38.154205,55.761551 38.913303,57.934986 39.525116,60.267891 
	C39.200150,60.661793 39.065659,60.918823 38.974350,61.198463 
z"/>
<path fill="#282828" opacity="1.000000" stroke="none" 
	d="
M25.131012,26.007931 
	C24.310143,26.618889 23.489273,27.229845 22.391754,27.999653 
	C19.425343,26.021214 16.735579,23.883923 13.665519,21.930748 
	C12.853513,19.094168 12.421804,16.073473 11.986245,12.611382 
	C13.703912,12.125903 15.425429,12.081820 17.630108,12.425450 
	C19.076481,12.597909 20.039694,12.382654 21.002907,12.167398 
	C24.196657,12.437527 27.390408,12.707656 29.988588,13.390114 
	C26.958029,14.549060 24.523037,15.295674 21.773991,16.088043 
	C20.784422,16.541252 20.002813,16.841330 19.457289,17.380342 
	C18.549738,18.277060 17.793629,19.327047 16.973743,20.312489 
	C18.369827,20.459410 19.764730,20.692493 21.162565,20.711657 
	C21.737093,20.719532 22.317940,20.266550 23.011547,20.361170 
	C23.795124,22.468739 24.463068,24.238335 25.131012,26.007931 
z"/>
<path fill="#030468" opacity="1.000000" stroke="none" 
	d="
M32.930073,38.168911 
	C33.085571,36.221851 33.241066,34.274796 33.728317,32.522163 
	C35.043068,32.864914 36.026058,33.013241 37.350182,33.110760 
	C38.533253,32.786633 39.375195,32.513313 40.505257,32.278015 
	C41.178837,32.360645 41.564293,32.405258 41.949745,32.449867 
	C44.544243,34.991840 45.523777,37.904388 43.935585,41.721008 
	C43.869774,42.050995 43.440250,42.045544 42.921906,42.228203 
	C41.362724,42.653374 40.321888,42.895889 38.943459,43.082966 
	C38.378468,43.029644 38.151066,43.031761 37.685146,42.998161 
	C37.446625,42.962448 36.989906,42.807274 36.830769,42.608269 
	C36.353222,42.316605 36.034817,42.223942 35.456978,42.182449 
	C34.575306,42.531818 33.953068,42.830013 33.076920,42.991280 
	C32.858696,41.292538 32.894382,39.730724 32.930073,38.168911 
z"/>
<path fill="#1B1B1B" opacity="1.000000" stroke="none" 
	d="
M61.016506,12.152464 
	C63.151348,12.152464 65.286186,12.152464 67.991051,12.152464 
	C67.991051,15.845134 68.411743,19.655046 67.807762,23.294928 
	C67.519913,25.029636 65.349701,26.514791 63.826698,27.884554 
	C63.674496,28.021441 62.090973,26.566874 61.060165,25.030226 
	C60.971230,20.190517 60.993870,16.171490 61.016506,12.152464 
z"/>
<path fill="#2E2E2E" opacity="1.000000" stroke="none" 
	d="
M60.556007,12.084583 
	C60.993870,16.171490 60.971230,20.190517 60.939754,24.680864 
	C59.113197,23.769608 57.295479,22.387028 55.188423,21.275578 
	C54.899082,21.546705 54.932629,21.350317 55.356880,21.437046 
	C55.500591,20.992544 55.220051,20.461309 54.996925,19.938541 
	C55.054344,19.947010 55.061295,20.062878 55.006886,19.718224 
	C52.940712,18.257717 50.928951,17.141863 48.761101,15.747020 
	C48.021400,14.640315 47.437790,13.812599 46.854176,12.984882 
	C51.267956,12.662156 55.681732,12.339429 60.556007,12.084583 
z"/>
<path fill="#282828" opacity="1.000000" stroke="none" 
	d="
M56.866142,65.062630 
	C57.910282,66.397209 59.434452,67.591866 59.874729,69.102448 
	C60.402374,70.912766 60.005096,72.992668 60.016167,75.395905 
	C53.182045,75.832741 46.340118,75.829506 39.696037,75.415558 
	C42.055038,74.399391 44.216194,73.793938 46.740288,73.160339 
	C48.315269,72.659157 50.008675,72.533180 50.647617,71.646957 
	C52.445885,69.152725 57.895809,70.109482 56.866142,65.062630 
z"/>
<path fill="#1D1E6E" opacity="1.000000" stroke="none" 
	d="
M39.672401,60.108421 
	C38.913303,57.934986 38.154205,55.761551 37.284317,52.992500 
	C38.090202,51.250355 39.006882,50.103821 40.306396,48.984077 
	C41.456081,49.002396 42.222935,48.993927 42.989788,48.985458 
	C43.038803,49.157318 43.087814,49.329178 42.769905,49.896530 
	C43.630604,50.903740 38.709511,53.051746 43.050968,52.885468 
	C43.212391,52.937611 43.373814,52.989758 44.071224,52.807579 
	C45.419910,52.388241 46.232609,52.203232 47.045311,52.018219 
	C47.463017,52.013161 47.880718,52.008099 48.964371,51.996326 
	C50.100227,51.994072 50.570133,51.998528 51.236153,52.254005 
	C51.770515,52.980186 52.108765,53.455341 52.172043,54.171852 
	C51.250751,55.626301 50.604431,56.839397 49.959869,58.012970 
	C49.961632,57.973446 50.011211,57.911774 49.652039,57.830376 
	C46.668137,60.908901 43.256542,60.860428 39.672401,60.108421 
z"/>
<path fill="#F4F4F4" opacity="1.000000" stroke="none" 
	d="
M22.088047,16.042290 
	C24.523037,15.295674 26.958029,14.549060 29.728512,13.710459 
	C30.358402,13.685566 30.652798,13.752659 31.550747,14.281435 
	C32.617027,17.410681 33.079754,20.078245 33.155434,22.789486 
	C31.836969,22.245712 30.958378,21.535210 29.958958,21.106159 
	C29.000860,20.694849 27.917377,20.575605 26.889000,20.328005 
	C27.032036,21.356464 27.175072,22.384926 27.555298,23.568653 
	C27.559935,24.264925 27.327383,24.805929 27.094830,25.346931 
	C26.623140,25.514925 26.151453,25.682919 25.405388,25.929424 
	C24.463068,24.238335 23.795124,22.468739 23.049547,20.009872 
	C22.677292,18.227835 22.382669,17.135061 22.088047,16.042290 
z"/>
<path fill="#F4F4F4" opacity="1.000000" stroke="none" 
	d="
M39.525116,60.267891 
	C43.256542,60.860428 46.668137,60.908901 49.737858,58.174713 
	C50.469265,59.690350 50.755676,60.780243 51.042091,61.870140 
	C47.237366,63.960701 44.810883,69.418472 39.028904,66.386703 
	C38.990719,66.001740 39.055317,65.929909 39.055317,65.929909 
	C43.446068,64.591263 39.178787,63.218227 39.022911,61.530090 
	C39.065659,60.918823 39.200150,60.661793 39.525116,60.267891 
z"/>
<path fill="#2B2B2B" opacity="1.000000" stroke="none" 
	d="
M14.439933,75.910080 
	C14.252755,73.396973 14.528178,70.952469 15.252883,68.220863 
	C16.069183,68.101181 16.436203,68.268600 16.803223,68.436012 
	C17.643389,69.187607 18.483557,69.939194 19.872555,70.895111 
	C21.365469,71.477997 22.309551,71.856567 23.482582,72.517502 
	C24.811357,73.143501 25.911182,73.487152 27.011007,73.830803 
	C27.519173,74.171989 28.027338,74.513168 28.535503,74.854355 
	C27.957178,75.240494 27.385988,75.947891 26.799376,75.960922 
	C22.835588,76.048958 18.868534,75.990044 14.439933,75.910080 
z"/>
<path fill="#F4F4F4" opacity="1.000000" stroke="none" 
	d="
M8.038021,58.913651 
	C8.038021,58.913651 7.982542,58.447876 7.829473,57.887772 
	C6.779677,55.420151 5.882950,53.512638 4.986222,51.605122 
	C4.878135,48.126423 5.031152,44.781322 9.463669,43.277618 
	C9.989602,47.038307 10.497119,50.667313 10.818605,54.974655 
	C10.427373,56.443348 10.222171,57.233700 9.742300,58.128883 
	C8.991096,58.460361 8.514559,58.687008 8.038021,58.913651 
z"/>
<path fill="#EBEBED" opacity="1.000000" stroke="none" 
	d="
M27.318108,23.413385 
	C27.175072,22.384926 27.032036,21.356464 26.889000,20.328005 
	C27.917377,20.575605 29.000860,20.694849 29.958958,21.106159 
	C30.958378,21.535210 31.836969,22.245712 33.466934,22.841257 
	C34.884476,22.560760 35.603477,22.272169 36.322475,21.983580 
	C37.705906,21.735357 39.089340,21.487135 40.871956,21.448841 
	C41.977951,22.438858 42.684765,23.218952 43.391579,23.999044 
	C42.032639,24.125441 40.673702,24.251837 38.662045,24.608101 
	C34.445587,24.363108 30.881847,23.888247 27.318108,23.413385 
z"/>
<path fill="#F4F4F4" opacity="1.000000" stroke="none" 
	d="
M56.621559,64.986092 
	C57.895809,70.109482 52.445885,69.152725 50.647617,71.646957 
	C50.008675,72.533180 48.315269,72.659157 46.492023,73.036713 
	C46.246014,71.926331 46.611202,70.911415 46.976391,69.896507 
	C48.084522,68.951614 49.192654,68.006721 50.685226,67.337006 
	C51.695301,67.600830 52.556923,67.847717 52.903477,67.530998 
	C54.064415,66.470016 55.041367,65.207726 56.088768,64.022514 
	C56.184834,64.318199 56.280903,64.613876 56.621559,64.986092 
z"/>
<path fill="#232323" opacity="1.000000" stroke="none" 
	d="
M54.932629,21.350317 
	C54.932629,21.350317 54.899082,21.546705 54.918510,21.644409 
	C53.857841,24.188021 52.777740,26.633930 51.129959,28.994074 
	C50.363552,28.832596 50.164829,28.756882 49.966103,28.681168 
	C49.147827,27.527502 48.329552,26.373838 47.348312,24.715805 
	C48.336189,23.546848 49.466541,22.843105 50.643066,22.227629 
	C52.095745,21.467693 53.586815,20.781141 55.061295,20.062878 
	C55.061295,20.062878 55.054344,19.947010 54.923592,20.293297 
	C54.839439,20.876493 54.886036,21.113405 54.932629,21.350317 
z"/>
<path fill="#1D1E6E" opacity="1.000000" stroke="none" 
	d="
M18.708401,39.923042 
	C19.159409,40.187279 19.342106,40.457596 19.887062,41.169537 
	C20.389797,44.452591 20.612696,47.238297 20.403814,50.023087 
	C19.107376,50.055462 18.242718,50.088753 17.378063,50.122047 
	C16.707823,48.329021 16.037584,46.535999 15.202119,44.390236 
	C15.036893,44.037498 15.108719,44.156273 15.108720,44.156273 
	C16.191702,42.765797 17.274683,41.375320 18.708401,39.923042 
z"/>
<path fill="#E9E9E9" opacity="1.000000" stroke="none" 
	d="
M56.377445,63.928902 
	C55.041367,65.207726 54.064415,66.470016 52.903477,67.530998 
	C52.556923,67.847717 51.695301,67.600830 51.025928,67.298386 
	C54.189785,62.901714 57.356007,58.785023 60.640331,54.764816 
	C61.287128,53.973103 62.389435,53.553524 63.629749,53.283684 
	C63.633865,54.102695 63.289890,54.600342 62.785316,55.174866 
	C62.748882,55.513847 62.873055,55.775959 62.939224,56.384319 
	C61.611191,58.223587 60.341156,59.716602 59.071121,61.209618 
	C58.269455,62.084839 57.467789,62.960064 56.377445,63.928902 
z"/>
<path fill="#2E3191" opacity="1.000000" stroke="none" 
	d="
M423.031128,37.482079 
	C422.750488,37.999020 422.474762,38.172375 422.131897,38.615692 
	C420.894470,38.842075 419.751526,38.842075 418.520416,38.842075 
	C421.739594,35.851368 421.739594,35.851368 419.150635,27.729355 
	C420.179626,29.005644 421.208618,30.281935 422.251984,31.576057 
	C423.035034,30.338633 423.852264,29.047216 424.669495,27.755798 
	C424.967377,27.903629 425.265259,28.051460 425.563141,28.199291 
	C424.711639,31.164503 423.860138,34.129711 423.031128,37.482079 
z"/>
<path fill="#232323" opacity="1.000000" stroke="none" 
	d="
M43.629929,24.169205 
	C42.684765,23.218952 41.977951,22.438858 41.141281,21.329987 
	C41.134998,20.842709 41.258572,20.684212 41.438095,20.128605 
	C41.494041,19.731497 41.538132,19.236029 41.538132,19.236029 
	C42.169853,17.898485 42.801579,16.560942 43.987297,15.135258 
	C45.026798,15.364656 45.512306,15.682196 45.992886,16.447880 
	C45.996181,19.568565 46.004406,22.241104 46.012630,24.913643 
	C45.297844,24.722216 44.583061,24.530790 43.629929,24.169205 
z"/>
<path fill="#EBEBED" opacity="1.000000" stroke="none" 
	d="
M23.253635,72.235138 
	C22.309551,71.856567 21.365469,71.477997 20.197956,70.883278 
	C20.104271,69.622559 20.234020,68.577995 20.411226,67.151367 
	C21.615587,67.865593 22.484282,68.380753 23.773540,69.177063 
	C24.795168,69.643074 25.396229,69.827950 25.997290,70.012817 
	C27.647600,70.442268 29.297911,70.871727 30.974644,71.649689 
	C31.001064,71.998199 30.976988,72.023941 30.976988,72.023941 
	C29.881771,72.332092 28.786554,72.640244 27.072662,72.689331 
	C25.387201,72.365234 24.320419,72.300186 23.253635,72.235138 
z"/>
<path fill="#232323" opacity="1.000000" stroke="none" 
	d="
M36.277000,21.533043 
	C35.603477,22.272169 34.884476,22.560760 33.853981,22.797581 
	C33.079754,20.078245 32.617027,17.410681 31.995514,14.366979 
	C33.078739,13.582672 34.320751,13.174503 35.808617,12.685538 
	C35.970055,15.890952 36.100792,18.486731 36.277000,21.533043 
z"/>
<path fill="#F4F4F4" opacity="1.000000" stroke="none" 
	d="
M64.948357,52.037800 
	C63.836346,51.956676 62.724335,51.875557 61.396263,51.778671 
	C61.894310,49.229980 62.332943,46.985344 62.840992,44.385464 
	C64.153229,44.645752 65.671906,44.946987 67.272301,45.264431 
	C66.489426,47.360405 65.741646,49.362392 64.994446,51.683392 
	C64.995010,52.002407 64.948357,52.037800 64.948357,52.037800 
z"/>
<path fill="#F4F4F4" opacity="1.000000" stroke="none" 
	d="
M26.912027,60.774990 
	C30.341129,62.188217 33.753681,64.534401 37.644020,61.050674 
	C37.665688,62.277996 37.314629,63.413433 36.390289,64.541656 
	C33.118969,64.970520 29.185696,61.476620 28.076401,66.967407 
	C27.423410,66.627975 26.770420,66.288544 26.154409,65.334763 
	C26.402834,63.929935 26.614277,63.139454 26.891579,62.047146 
	C26.970100,61.539764 26.982759,61.334213 26.981115,61.038704 
	C26.966814,60.948742 26.912027,60.774990 26.912027,60.774990 
z"/>
<path fill="#F4F4F4" opacity="1.000000" stroke="none" 
	d="
M59.448730,61.174110 
	C60.341156,59.716602 61.611191,58.223587 62.935158,56.148602 
	C62.989090,55.566631 62.945919,55.097992 62.945919,55.097992 
	C63.289890,54.600342 63.633865,54.102695 64.002151,53.287796 
	C64.336212,52.890057 64.582314,52.718372 64.856560,52.246651 
	C64.948357,52.037800 64.995010,52.002407 65.017197,51.982292 
	C68.939987,53.917500 64.791107,55.999813 65.075676,58.351433 
	C63.286472,59.507278 61.556404,60.322941 59.448730,61.174110 
z"/>
<path fill="#737372" opacity="1.000000" stroke="none" 
	d="
M28.483414,67.005363 
	C29.185696,61.476620 33.118969,64.970520 36.178165,64.763290 
	C36.536697,67.322388 35.749172,68.623680 33.095894,67.851654 
	C31.731215,67.454559 30.294558,67.304825 28.483414,67.005363 
z"/>
<path fill="#E9E9E9" opacity="1.000000" stroke="none" 
	d="
M46.660507,69.922974 
	C46.611202,70.911415 46.246014,71.926331 46.129089,73.064865 
	C44.216194,73.793938 42.055038,74.399391 39.504501,75.032249 
	C39.115120,75.059662 38.973259,75.105522 38.962044,74.647095 
	C38.893116,73.383759 38.835400,72.578850 38.777683,71.773949 
	C41.299995,71.165779 43.822308,70.557617 46.660507,69.922974 
z"/>
<path fill="#DCDBDD" opacity="1.000000" stroke="none" 
	d="
M39.281048,43.138405 
	C40.321888,42.895889 41.362724,42.653374 42.735413,42.334740 
	C42.613804,43.992130 45.247513,46.687225 41.019592,47.691669 
	C40.568829,47.997852 40.113880,48.189331 39.928200,47.911232 
	C38.732239,47.270676 37.721962,46.908222 36.555527,46.489746 
	C37.101433,45.535423 37.573868,44.709526 38.312477,43.885750 
	C38.812786,43.638046 39.046917,43.388226 39.281048,43.138405 
z"/>
<path fill="#5B5B5B" opacity="1.000000" stroke="none" 
	d="
M56.010506,52.830864 
	C56.289116,55.470524 57.593494,58.713993 52.398933,58.167740 
	C52.034161,57.988827 52.025593,58.068073 52.003021,57.710003 
	C52.971901,55.805412 53.963352,54.258896 55.216125,52.765182 
	C55.655132,52.822285 55.832817,52.826572 56.010506,52.830864 
z"/>
<path fill="#030468" opacity="1.000000" stroke="none" 
	d="
M17.478603,50.453316 
	C18.242718,50.088753 19.107376,50.055462 20.651100,50.208008 
	C21.883450,50.938366 22.436731,51.482883 22.973446,52.225517 
	C22.956879,52.423634 22.985415,52.820225 22.686577,53.052803 
	C22.171276,54.259712 21.954815,55.234035 21.503660,56.334557 
	C20.977818,56.279671 20.686666,56.098587 20.262360,55.664070 
	C19.989990,55.280197 19.850777,55.149761 19.639889,54.739689 
	C19.087234,53.896011 18.606249,53.331978 18.125263,52.767941 
	C17.943226,52.106823 17.761187,51.445705 17.478603,50.453316 
z"/>
<path fill="#EBEBED" opacity="1.000000" stroke="none" 
	d="
M16.854439,68.055008 
	C16.436203,68.268600 16.069183,68.101181 15.412781,67.842178 
	C14.767787,66.424721 14.412177,65.098854 14.178299,63.174072 
	C14.655549,62.389576 15.011066,62.204006 15.366583,62.018433 
	C19.682890,62.868618 16.620924,65.726685 16.854439,68.055008 
z"/>
<path fill="#9B9B9B" opacity="1.000000" stroke="none" 
	d="
M15.226860,61.666924 
	C15.011066,62.204006 14.655549,62.389576 14.120726,62.819279 
	C13.941421,63.063412 13.459181,63.004425 12.991707,62.760483 
	C11.688477,61.019043 10.852722,59.521545 10.016968,58.024052 
	C10.222171,57.233700 10.427373,56.443348 10.828418,55.401535 
	C11.024261,55.150070 11.384180,55.188519 11.627071,55.343040 
	C11.940257,55.722664 12.059286,55.918053 12.227051,56.083736 
	C13.180413,57.827629 14.133776,59.571526 15.226860,61.666924 
z"/>
<path fill="#484848" opacity="1.000000" stroke="none" 
	d="
M26.825722,62.348976 
	C26.614277,63.139454 26.402834,63.929935 26.117054,65.036957 
	C24.077583,64.202461 22.112453,63.051437 20.453968,61.355072 
	C22.217976,60.862164 23.675335,60.914597 25.098515,60.980461 
	C25.064331,60.993889 25.026581,60.930527 24.964214,61.320309 
	C24.933342,61.971359 24.964838,62.232628 24.887592,62.558784 
	C24.778847,62.623676 24.629681,62.423744 24.629681,62.423744 
	C24.629681,62.423744 24.957022,62.375935 25.170521,62.501488 
	C25.864588,62.534355 26.345156,62.441666 26.825722,62.348976 
z"/>
<path fill="#282828" opacity="1.000000" stroke="none" 
	d="
M4.647674,51.862511 
	C5.882950,53.512638 6.779677,55.420151 7.721888,57.679371 
	C6.798470,58.013004 5.829570,57.994930 4.497539,57.996971 
	C4.192647,56.051350 4.250886,54.085625 4.647674,51.862511 
z"/>
<path fill="#DCDBDD" opacity="1.000000" stroke="none" 
	d="
M25.132696,60.967030 
	C23.675335,60.914597 22.217976,60.862164 20.437424,60.999649 
	C19.801729,59.852943 19.489229,58.516315 18.843496,56.686287 
	C18.510265,56.192879 18.799719,55.915829 19.198671,55.913719 
	C19.863588,55.913570 20.129553,55.915539 20.395515,55.917503 
	C20.686666,56.098587 20.977818,56.279671 21.551147,56.309982 
	C21.833324,56.159210 21.810110,56.053783 21.630123,56.338783 
	C21.953772,57.013378 22.457405,57.402973 23.171917,57.938042 
	C23.551573,58.109661 23.720354,58.135799 24.081871,58.450699 
	C24.560637,59.481983 24.846666,60.224506 25.132696,60.967030 
z"/>
<path fill="#E6E6E6" opacity="1.000000" stroke="none" 
	d="
M52.447014,53.930504 
	C52.108765,53.455341 51.770515,52.980186 51.359306,51.881947 
	C51.247601,50.479565 51.208855,49.700260 51.170109,48.920959 
	C52.469501,49.653294 53.768898,50.385632 55.043190,51.553131 
	C55.018089,51.988297 54.884148,52.121769 54.616577,52.128803 
	C53.715008,52.734062 53.081009,53.332283 52.447014,53.930504 
z"/>
<path fill="#F4F4F4" opacity="1.000000" stroke="none" 
	d="
M12.710049,56.069920 
	C12.059286,55.918053 11.940257,55.722664 11.807845,55.334328 
	C13.710005,54.566261 15.674281,53.961426 17.881910,53.062263 
	C18.606249,53.331978 19.087234,53.896011 19.440041,54.765800 
	C19.062956,55.292496 18.814051,55.513435 18.388842,55.846397 
	C18.212538,55.958420 17.882971,56.215149 17.882971,56.215149 
	C16.319662,56.162132 14.756354,56.109119 12.710049,56.069920 
z"/>
<path fill="#EBEBED" opacity="1.000000" stroke="none" 
	d="
M38.453827,71.785500 
	C38.835400,72.578850 38.893116,73.383759 38.915115,74.589172 
	C35.694801,76.763763 36.425320,72.764305 34.396194,72.092400 
	C33.985157,71.956520 33.822697,71.702644 33.822697,71.702644 
	C35.258453,71.734116 36.694210,71.765587 38.453827,71.785500 
z"/>
<path fill="#F4F4F4" opacity="1.000000" stroke="none" 
	d="
M19.475893,32.977909 
	C20.161983,33.461235 20.491756,33.943001 20.561981,34.763432 
	C19.910315,35.775574 19.518196,36.449055 19.126080,37.122536 
	C19.126078,37.122536 19.098982,37.123466 19.090813,37.138161 
	C18.504522,36.943169 17.926403,36.733475 17.149639,35.966621 
	C16.620087,34.934494 16.289173,34.459534 15.958261,33.984573 
	C17.012033,33.648502 18.065805,33.312428 19.475893,32.977909 
z"/>
<path fill="#EBEBED" opacity="1.000000" stroke="none" 
	d="
M45.997810,15.999735 
	C45.512306,15.682196 45.026798,15.364656 44.263847,14.960119 
	C44.717243,14.248068 45.448078,13.623013 46.516548,12.991420 
	C47.437790,13.812599 48.021400,14.640315 48.396111,15.750497 
	C47.457409,16.021887 46.727612,16.010811 45.997810,15.999735 
z"/>
<path fill="#F4F4F4" opacity="1.000000" stroke="none" 
	d="
M15.095169,44.075089 
	C14.282614,42.438759 13.411783,40.764835 12.540953,39.090916 
	C13.030994,38.884411 13.521035,38.677910 14.011076,38.471409 
	C14.356503,40.123505 14.701932,41.775600 15.078039,43.791985 
	C15.108719,44.156273 15.036893,44.037498 15.095169,44.075089 
z"/>
<path fill="#F4F4F4" opacity="1.000000" stroke="none" 
	d="
M66.097595,41.547935 
	C66.152443,40.273193 66.283653,39.351986 66.414871,38.430779 
	C66.888641,38.674854 67.362404,38.918926 67.836174,39.163002 
	C67.282104,40.075825 66.728035,40.988644 66.097595,41.547935 
z"/>
<path fill="#E6E6E6" opacity="1.000000" stroke="none" 
	d="
M49.364094,45.012844 
	C49.743286,43.715633 50.519829,42.440990 51.604156,41.051472 
	C51.195107,42.302868 50.478275,43.669140 49.364094,45.012844 
z"/>
<path fill="#313131" opacity="1.000000" stroke="none" 
	d="
M51.389824,61.795071 
	C50.755676,60.780243 50.469265,59.690350 50.097031,58.256111 
	C50.011211,57.911774 49.961632,57.973446 50.299240,58.100159 
	C51.099766,58.173939 51.562679,58.121006 52.025593,58.068073 
	C52.025593,58.068073 52.034161,57.988827 51.997025,57.975426 
	C53.683926,59.321064 53.504082,60.567467 51.389824,61.795071 
z"/>
<path fill="#EBEBED" opacity="1.000000" stroke="none" 
	d="
M34.080303,72.073395 
	C33.137440,72.338402 32.099426,72.486519 31.019203,72.329285 
	C30.976988,72.023941 31.001064,71.998199 31.012115,71.983627 
	C31.796101,71.843529 32.569031,71.718010 33.582329,71.647568 
	C33.822697,71.702644 33.985157,71.956520 34.080303,72.073395 
z"/>
<path fill="#2B2B2B" opacity="1.000000" stroke="none" 
	d="
M20.630512,12.092512 
	C20.039694,12.382654 19.076481,12.597909 18.055164,12.497869 
	C18.750746,12.127591 19.504431,12.072608 20.630512,12.092512 
z"/>
<path fill="#DCDBDD" opacity="1.000000" stroke="none" 
	d="
M46.765678,51.880295 
	C46.232609,52.203232 45.419910,52.388241 44.267082,52.645138 
	C44.779987,52.392139 45.633018,52.067253 46.765678,51.880295 
z"/>
<path fill="#F4F4F4" opacity="1.000000" stroke="none" 
	d="
M23.482584,72.517502 
	C24.320419,72.300186 25.387201,72.365234 26.730160,72.723724 
	C27.006334,73.017174 27.007742,73.423996 27.009375,73.627396 
	C25.911182,73.487152 24.811357,73.143501 23.482584,72.517502 
z"/>
<path fill="#1C276E" opacity="1.000000" stroke="none" 
	d="
M51.133350,48.976646 
	C51.208855,49.700260 51.247601,50.479565 51.163193,51.630924 
	C50.570133,51.998528 50.100227,51.994072 49.278183,51.978195 
	C48.907845,51.451324 48.889641,50.935867 49.085808,50.134750 
	C49.857437,49.560955 50.414692,49.272816 50.971943,48.984673 
	C50.971943,48.984673 51.096592,49.032337 51.133350,48.976646 
z"/>
<path fill="#F4F4F4" opacity="1.000000" stroke="none" 
	d="
M25.968534,69.718658 
	C25.396229,69.827950 24.795168,69.643074 24.096754,69.221893 
	C24.646196,69.131889 25.292988,69.278198 25.968534,69.718658 
z"/>
<path fill="#F4F4F4" opacity="1.000000" stroke="none" 
	d="
M66.175369,32.843430 
	C66.290657,33.713066 66.405952,34.582699 66.521248,35.452335 
	C66.217575,35.458149 65.913895,35.463963 65.610229,35.469776 
	C65.616005,34.878845 65.621788,34.287910 65.820541,33.345150 
	C66.013504,32.993320 66.175369,32.843430 66.175369,32.843430 
z"/>
<path fill="#F6F6F6" opacity="1.000000" stroke="none" 
	d="
M15.740786,34.166321 
	C16.289173,34.459534 16.620087,34.934494 16.967499,35.714298 
	C16.497101,35.462120 16.010206,34.905094 15.740786,34.166321 
z"/>
<path fill="#DCDBDD" opacity="1.000000" stroke="none" 
	d="
M43.052475,52.527180 
	C38.709511,53.051746 43.630604,50.903740 42.704357,50.156464 
	C43.021812,50.736904 43.037895,51.452900 43.052475,52.527180 
z"/>
<path fill="#222864" opacity="1.000000" stroke="none" 
	d="
M48.724228,49.717018 
	C48.071835,49.293781 47.419441,48.870544 46.767044,48.447304 
	C47.441040,48.051956 48.115032,47.656609 48.950150,48.054504 
	C48.982258,49.137505 48.853245,49.427261 48.724228,49.717018 
z"/>
<path fill="#DCDBDD" opacity="1.000000" stroke="none" 
	d="
M44.909035,43.560787 
	C45.400860,43.877911 45.892094,44.523876 46.710823,45.240082 
	C46.328362,44.836761 45.618408,44.363194 44.909035,43.560787 
z"/>
<path fill="#44438B" opacity="1.000000" stroke="none" 
	d="
M40.113880,48.189331 
	C40.113880,48.189331 40.568829,47.997852 40.805763,47.927242 
	C41.662636,48.018654 42.282570,48.180679 42.946144,48.664078 
	C42.222935,48.993927 41.456081,49.002396 40.369240,48.795864 
	C40.049252,48.580864 40.113880,48.189331 40.113880,48.189331 
z"/>
<path fill="#F4F4F4" opacity="1.000000" stroke="none" 
	d="
M21.428616,29.988071 
	C21.639452,30.575737 21.617540,31.180920 21.272465,31.798927 
	C21.031490,31.209698 21.113680,30.607643 21.428616,29.988071 
z"/>
<path fill="#9B9B9B" opacity="1.000000" stroke="none" 
	d="
M48.747871,49.683151 
	C48.853245,49.427261 48.982258,49.137505 49.174179,48.376816 
	C49.762321,48.082134 50.287563,48.258389 50.892376,48.709656 
	C50.414692,49.272816 49.857437,49.560955 48.993568,49.757835 
	C48.686958,49.666576 48.771511,49.649284 48.747871,49.683151 
z"/>
<path fill="#F4F4F4" opacity="1.000000" stroke="none" 
	d="
M65.936546,33.072342 
	C65.464081,32.775803 65.068565,32.400246 64.673058,32.024689 
	C65.127769,32.136257 65.582481,32.247826 66.106277,32.601410 
	C66.175369,32.843430 66.013504,32.993320 65.936546,33.072342 
z"/>
<path fill="#E6E6E6" opacity="1.000000" stroke="none" 
	d="
M52.297234,40.965942 
	C52.748699,40.677116 53.548283,40.439018 54.673546,40.100975 
	C54.214600,40.339581 53.429977,40.678123 52.297234,40.965942 
z"/>
<path fill="#EBEBED" opacity="1.000000" stroke="none" 
	d="
M41.329147,13.669497 
	C40.976246,13.703203 40.761921,13.591850 40.547592,13.480497 
	C40.639709,13.384239 40.761395,13.191236 40.818737,13.208762 
	C41.046001,13.278219 41.253128,13.413533 41.329147,13.669497 
z"/>
<path fill="#EBEBED" opacity="1.000000" stroke="none" 
	d="
M41.290718,19.178314 
	C41.538132,19.236029 41.494041,19.731497 41.286324,19.868128 
	C40.910275,19.766783 40.741947,19.528809 40.573616,19.290834 
	C40.730179,19.234091 40.886742,19.177345 41.290718,19.178314 
z"/>
<path fill="#F4F4F4" opacity="1.000000" stroke="none" 
	d="
M50.044228,28.977205 
	C50.164829,28.756882 50.363552,28.832596 50.788673,29.133041 
	C51.015064,29.357771 51.040337,29.703722 51.008858,29.874256 
	C50.692371,29.787607 50.407364,29.530426 50.044228,28.977205 
z"/>
<path fill="#F4F4F4" opacity="1.000000" stroke="none" 
	d="
M38.954376,66.033554 
	C38.810425,65.888733 38.702820,65.712105 38.595215,65.535477 
	C38.697269,65.576584 38.799328,65.617683 38.978352,65.794342 
	C39.055317,65.929909 38.990719,66.001740 38.954376,66.033554 
z"/>
<path fill="#F4F4F4" opacity="1.000000" stroke="none" 
	d="
M63.467720,30.447250 
	C63.525967,30.412333 63.409473,30.482170 63.467720,30.447250 
z"/>
<path fill="#E6E6E6" opacity="1.000000" stroke="none" 
	d="
M55.938515,52.616028 
	C55.832817,52.826572 55.655132,52.822285 55.197487,52.617912 
	C54.917519,52.417828 54.884148,52.121769 54.884148,52.121769 
	C54.884148,52.121769 55.018089,51.988297 55.087563,51.921638 
	C55.450233,51.963413 55.686729,52.145481 55.938515,52.616028 
z"/>
<path fill="#F4F4F4" opacity="1.000000" stroke="none" 
	d="
M5.462405,40.439281 
	C5.524117,40.400242 5.400693,40.478321 5.462405,40.439281 
z"/>
<path fill="#F4F4F4" opacity="1.000000" stroke="none" 
	d="
M18.799719,55.915829 
	C18.799719,55.915829 18.510265,56.192879 18.546272,56.388283 
	C18.582277,56.583691 18.277893,56.760082 18.277893,56.760082 
	C18.277893,56.760082 17.996273,56.549053 17.939621,56.382103 
	C17.882971,56.215149 18.212538,55.958420 18.442719,55.895515 
	C18.672897,55.832611 18.799719,55.915829 18.799719,55.915829 
z"/>
<path fill="#1C276E" opacity="1.000000" stroke="none" 
	d="
M27.555298,23.568653 
	C30.881847,23.888247 34.445587,24.363108 38.443703,24.858692 
	C38.998989,26.013113 39.119896,27.146805 38.931595,28.700958 
	C38.365223,29.304144 38.189137,29.545918 37.846611,30.020382 
	C37.402966,30.741903 37.206844,31.289783 36.992714,32.168617 
	C36.986156,32.720234 36.997601,32.940899 37.009048,33.161568 
	C36.026058,33.013241 35.043068,32.864914 34.013596,32.398911 
	C33.520260,31.377089 33.214478,30.498140 32.599731,30.002031 
	C30.850632,28.590467 28.975555,27.335001 27.122444,25.682514 
	C27.327383,24.805929 27.559935,24.264925 27.555298,23.568653 
z"/>
<path fill="#F6F6F6" opacity="1.000000" stroke="none" 
	d="
M45.992886,16.447880 
	C46.727612,16.010811 47.457409,16.021887 48.552200,16.029486 
	C50.928951,17.141863 52.940712,18.257717 55.006886,19.718224 
	C53.586815,20.781141 52.095745,21.467693 50.643066,22.227629 
	C49.466541,22.843105 48.336189,23.546848 47.075371,24.577370 
	C46.965389,24.943306 46.488338,24.966633 46.250484,24.940138 
	C46.004406,22.241104 45.996181,19.568565 45.992886,16.447880 
z"/>
<path fill="#44438B" opacity="1.000000" stroke="none" 
	d="
M41.993561,32.083473 
	C41.564293,32.405258 41.178837,32.360645 40.413010,32.179409 
	C40.032631,32.042786 39.848209,31.853138 39.854958,31.593378 
	C39.800652,30.995520 39.739594,30.657421 39.788567,30.208544 
	C39.898605,30.097765 40.117496,29.875036 40.117496,29.875036 
	C40.757458,30.489050 41.397419,31.103062 41.993561,32.083473 
z"/>
<path fill="#44438B" opacity="1.000000" stroke="none" 
	d="
M38.094131,29.846741 
	C38.189137,29.545918 38.365223,29.304144 38.817127,29.003479 
	C39.297894,29.066481 39.583923,29.247423 39.993725,29.651701 
	C40.117496,29.875036 39.898605,30.097765 39.529278,30.123148 
	C38.804676,30.047934 38.449406,29.947336 38.094131,29.846741 
z"/>
<path fill="#282828" opacity="1.000000" stroke="none" 
	d="
M9.742300,58.128883 
	C10.852722,59.521545 11.688477,61.019043 12.748837,62.765316 
	C11.322597,61.846359 9.671752,60.678627 8.029465,59.212273 
	C8.514559,58.687008 8.991096,58.460361 9.742300,58.128883 
z"/>
<path fill="#DCDBDD" opacity="1.000000" stroke="none" 
	d="
M22.990015,52.027401 
	C22.436731,51.482883 21.883450,50.938366 21.082882,50.208923 
	C20.612696,47.238297 20.389797,44.452591 20.103779,41.288956 
	C22.726763,40.529083 25.412861,40.147144 28.443071,39.932335 
	C28.787182,40.099468 28.912457,40.101093 28.932503,40.414295 
	C28.963062,41.145763 28.973574,41.564034 28.660585,42.133797 
	C28.734003,43.418736 29.130922,44.552181 29.527840,45.685627 
	C29.088741,45.462612 28.649643,45.239597 28.210545,45.016582 
	C27.420319,46.572346 26.630093,48.128113 25.839869,49.683880 
	C25.557281,49.940285 25.274694,50.196690 24.693237,50.840744 
	C23.926250,51.494736 23.458134,51.761066 22.990015,52.027401 
z"/>
<path fill="#222864" opacity="1.000000" stroke="none" 
	d="
M26.222624,49.727715 
	C26.630093,48.128113 27.420319,46.572346 28.210545,45.016582 
	C28.649643,45.239597 29.088741,45.462612 29.527840,45.685627 
	C29.130922,44.552181 28.734003,43.418736 28.963808,42.095585 
	C29.904547,41.490807 30.218563,41.075733 30.532579,40.660660 
	C29.992538,40.474140 29.452497,40.287617 28.912457,40.101093 
	C28.912457,40.101093 28.787182,40.099468 28.750584,40.047520 
	C29.892319,39.343361 31.070650,38.691151 32.589527,38.103928 
	C32.894382,39.730724 32.858696,41.292538 33.040295,43.383816 
	C32.466644,44.561172 31.675709,45.209064 30.884773,45.856956 
	C31.283245,45.994251 31.681719,46.131546 32.080193,46.268837 
	C31.702091,47.876606 31.323990,49.484375 30.945892,51.092144 
	C29.499056,50.651947 28.052217,50.211750 26.222624,49.727715 
z"/>
<path fill="#F6F6F6" opacity="1.000000" stroke="none" 
	d="
M19.414318,37.102291 
	C19.518196,36.449055 19.910315,35.775574 20.626431,35.052574 
	C20.534472,35.696049 20.118513,36.389050 19.414318,37.102291 
z"/>
<path fill="#E3E3E2" opacity="1.000000" stroke="none" 
	d="
M30.953089,51.417519 
	C31.323990,49.484375 31.702091,47.876606 32.080193,46.268837 
	C31.681719,46.131546 31.283245,45.994251 30.884773,45.856956 
	C31.675709,45.209064 32.466644,44.561172 33.294205,43.520744 
	C33.953068,42.830013 34.575306,42.531818 35.586540,42.428474 
	C36.313660,42.684639 36.651783,42.745956 36.989906,42.807274 
	C36.989906,42.807274 37.446625,42.962448 37.705811,43.212009 
	C37.964993,43.461571 38.046307,43.883633 38.046307,43.883633 
	C37.573868,44.709526 37.101433,45.535423 36.555527,46.489746 
	C37.721962,46.908222 38.732239,47.270676 39.928200,47.911232 
	C40.113880,48.189331 40.049252,48.580864 39.986408,48.769077 
	C39.006882,50.103821 38.090202,51.250355 37.024612,52.736752 
	C34.903900,52.632042 32.932095,52.187466 30.953089,51.417519 
z"/>
<path fill="#141770" opacity="1.000000" stroke="none" 
	d="
M22.973446,52.225517 
	C23.458134,51.761066 23.926250,51.494736 24.647303,51.129311 
	C25.605047,54.020107 26.309856,57.009995 26.963346,60.387436 
	C26.912027,60.774990 26.966814,60.948742 26.637108,60.837185 
	C25.880463,60.793926 25.453522,60.862225 25.026581,60.930527 
	C25.026581,60.930527 25.064331,60.993889 25.098515,60.980461 
	C24.846666,60.224506 24.560637,59.481983 24.097549,58.062561 
	C23.608799,55.863853 23.297108,54.342037 22.985415,52.820225 
	C22.985415,52.820225 22.956879,52.423634 22.973446,52.225517 
z"/>
<path fill="#484848" opacity="1.000000" stroke="none" 
	d="
M21.773991,16.088043 
	C22.382669,17.135061 22.677292,18.227835 22.933914,19.671902 
	C22.317940,20.266550 21.737093,20.719532 21.162565,20.711657 
	C19.764730,20.692493 18.369827,20.459410 16.973743,20.312489 
	C17.793629,19.327047 18.549738,18.277060 19.457289,17.380342 
	C20.002813,16.841330 20.784422,16.541252 21.773991,16.088043 
z"/>
<path fill="#44438B" opacity="1.000000" stroke="none" 
	d="
M37.350182,33.110760 
	C36.997601,32.940899 36.986156,32.720234 37.346687,32.221375 
	C38.428513,31.913164 39.138363,31.883150 39.848209,31.853138 
	C39.848209,31.853138 40.032631,32.042786 40.124882,32.141388 
	C39.375195,32.513313 38.533253,32.786633 37.350182,33.110760 
z"/>
<path fill="#141770" opacity="1.000000" stroke="none" 
	d="
M38.312477,43.885750 
	C38.046307,43.883633 37.964993,43.461571 37.944328,43.247723 
	C38.151066,43.031761 38.378468,43.029644 38.943459,43.082962 
	C39.046917,43.388226 38.812786,43.638046 38.312477,43.885750 
z"/>
<path fill="#141770" opacity="1.000000" stroke="none" 
	d="
M36.830769,42.608269 
	C36.651783,42.745956 36.313660,42.684639 35.845970,42.377300 
	C36.034817,42.223942 36.353222,42.316605 36.830769,42.608269 
z"/>
<path fill="#FFFFFF" opacity="1.000000" stroke="none" 
	d="
M55.356880,21.437046 
	C54.886036,21.113405 54.839439,20.876493 54.866173,20.284828 
	C55.220051,20.461309 55.500591,20.992544 55.356880,21.437046 
z"/>
<path fill="#F4F4F4" opacity="1.000000" stroke="none" 
	d="
M54.616577,52.128803 
	C54.884148,52.121769 54.917519,52.417828 54.936161,52.565102 
	C53.963352,54.258896 52.971901,55.805412 52.003021,57.710003 
	C51.562679,58.121006 51.099766,58.173939 50.297482,58.139687 
	C50.604431,56.839397 51.250751,55.626301 52.172043,54.171852 
	C53.081009,53.332283 53.715008,52.734062 54.616577,52.128803 
z"/>
<path fill="#FFFFFF" opacity="1.000000" stroke="none" 
	d="
M62.785316,55.174866 
	C62.945919,55.097992 62.989090,55.566631 62.993156,55.802349 
	C62.873055,55.775959 62.748882,55.513847 62.785316,55.174866 
z"/>
<path fill="#DCDBDD" opacity="1.000000" stroke="none" 
	d="
M24.964214,61.320305 
	C25.453522,60.862225 25.880463,60.793926 26.651409,60.927147 
	C26.982759,61.334213 26.970100,61.539764 26.891581,62.047146 
	C26.345156,62.441666 25.864588,62.534355 25.191847,62.526848 
	C24.999672,62.426647 24.996336,62.493896 24.996336,62.493896 
	C24.964838,62.232628 24.933342,61.971359 24.964214,61.320305 
z"/>
<path fill="#2E3191" opacity="1.000000" stroke="none" 
	d="
M22.686577,53.052803 
	C23.297108,54.342037 23.608799,55.863853 23.904812,57.773804 
	C23.720354,58.135799 23.551573,58.109661 23.137810,57.652790 
	C22.531919,56.832634 22.171015,56.443211 21.810110,56.053783 
	C21.810110,56.053783 21.833324,56.159210 21.785839,56.183784 
	C21.954815,55.234035 22.171276,54.259712 22.686577,53.052803 
z"/>
<path fill="#FFFFFF" opacity="1.000000" stroke="none" 
	d="
M19.198671,55.913719 
	C18.799719,55.915829 18.672897,55.832611 18.619022,55.783493 
	C18.814051,55.513435 19.062956,55.292496 19.511711,55.045441 
	C19.850777,55.149761 19.989990,55.280197 20.262362,55.664070 
	C20.129553,55.915539 19.863588,55.913570 19.198671,55.913719 
z"/>
<path fill="#F4F4F4" opacity="1.000000" stroke="none" 
	d="
M24.887592,62.558784 
	C24.996336,62.493896 24.999672,62.426647 24.978348,62.401291 
	C24.957022,62.375935 24.629681,62.423744 24.629681,62.423744 
	C24.629681,62.423744 24.778847,62.623676 24.887592,62.558784 
z"/>
<path fill="#030468" opacity="1.000000" stroke="none" 
	d="
M21.630123,56.338783 
	C22.171015,56.443211 22.531919,56.832634 22.926933,57.507313 
	C22.457405,57.402973 21.953772,57.013378 21.630123,56.338783 
z"/>
<path fill="#030468" opacity="1.000000" stroke="none" 
	d="
M39.854958,31.593376 
	C39.138363,31.883150 38.428513,31.913164 37.364693,31.890419 
	C37.206844,31.289783 37.402966,30.741903 37.846611,30.020382 
	C38.449406,29.947336 38.804676,30.047934 39.419243,30.233927 
	C39.739594,30.657421 39.800652,30.995520 39.854958,31.593376 
z"/>
<path fill="#141770" opacity="1.000000" stroke="none" 
	d="
M28.932503,40.414295 
	C29.452497,40.287617 29.992538,40.474140 30.532579,40.660660 
	C30.218563,41.075733 29.904547,41.490807 29.287308,41.944092 
	C28.973574,41.564034 28.963062,41.145763 28.932503,40.414295 
z"/>
</svg>